<?xml version="1.0" encoding="UTF-8" standalone="no"?>
<!DOCTYPE svg PUBLIC "-//W3C//DTD SVG 1.1//EN" "http://www.w3.org/Graphics/SVG/1.1/DTD/svg11.dtd">
<svg width="100%" height="100%" viewBox="0 0 700 700" version="1.1" xmlns="http://www.w3.org/2000/svg" xmlns:xlink="http://www.w3.org/1999/xlink" xml:space="preserve" xmlns:serif="http://www.serif.com/" style="fill-rule:evenodd;clip-rule:evenodd;stroke-linecap:round;stroke-linejoin:round;stroke-miterlimit:1.5;">
    <g id="Layer1">
        <g transform="matrix(-1,0,0,1,693.193,3.31822)">
            <path d="M372.805,-9.776L357.017,31.47L369.513,68.113L374.921,94.462L415.846,94.829L454.479,176.754L432.644,235.86L395.454,276.966L343.802,277.318L359.43,386.537L347.411,444.256L300.309,481.481L232.14,458.918L191.954,485.166L239.58,577.054L231.422,592.51L162.534,585.453L130.556,626.353L75.567,643.131L43.629,628.198L17.703,704.373L65.967,678.587L94.954,710.098L75.567,643.131L114.442,667.052L130.556,626.353L180.345,666.657L231.422,592.51L296.375,655.113L298.228,597.667L268.029,520.642L232.14,458.918L303.772,515.902L340.193,604.443L381.063,504.804L323.614,463.243L377.736,471.494L417.435,445.175L405.235,398.817L370.151,345.934L410.538,330.517L443.078,367.325L445.326,293.146L462.527,317.69L528.247,319.58L432.644,235.86L478.48,191.713L494.051,124.267L460.36,69.088L452.361,11.868L428.332,-11.108L462.18,-25.765L452.361,11.868L488.563,-6.424L511.816,34.461L581.045,-5.226L628.117,69.711L639.145,34.919L610.861,-11.174L672.671,-29.827L669.525,72.823L655.269,125.957L581.763,108.35L628.117,69.711L564.148,66.617L511.816,34.461L511.378,99.092L581.763,108.35L509.881,155.502L478.48,191.713L555.859,179.514L511.655,237.167L579.528,246.677L645.478,306.677L671.344,371.201L667.283,424.24L640.919,386.351L615.953,347.552L588.413,296.982L579.528,246.677L528.247,319.58L562.542,372.503L588.413,296.982L645.478,306.677L615.953,347.552L562.542,372.503L628.187,417.349L640.919,386.351L671.344,371.201L712.39,386.552L696.064,445.045L667.283,424.24L650.047,483.029L581.165,453.262L723.473,568.187L614.174,533.771L581.165,453.262L508.89,441.496L458.319,422.109L443.078,367.325L488.046,347.713L512.223,387.125L508.89,441.496L494.324,471.96L479.657,539.185L479.018,628.399L562.115,527.714L538.44,475.65L479.657,539.185L433.454,585.302L393.373,629.494L445.004,644.232L592.389,576.838L614.174,533.771L650.967,597.099L592.389,576.838L675.2,690.334L672.988,714.23L715.677,713.928L694.23,651.354L723.473,568.187L650.967,597.099L647.856,655.772L624.968,721.304L584.38,638.006L529.713,672.118L463.004,665.479L444.673,714.647L418.45,678.482L393.373,629.494L355.635,644.131L323.641,689.555L323.254,713.526L357.132,710.45L355.635,644.131L411.428,542.135L458.319,422.109L512.223,387.125L559.233,417.431L562.542,372.503L488.046,347.713L528.247,319.58L588.413,296.982" style="fill:none;stroke:white;stroke-opacity:0.75;stroke-width:1.33px;"/>
        </g>
        <g transform="matrix(-1,0,0,1,693.193,3.31822)">
            <path d="M712.923,25.338L671.298,14.961L639.145,34.919L669.525,72.823L693.913,91.893L709.098,63.484L739.297,109.144L693.913,91.893L655.269,125.957L651.058,167.45L726.082,155.387L674.816,105.895L730.872,119.976L762.152,199.217L694.079,204.188L651.058,167.45L581.763,108.35L564.148,66.617L511.378,99.092L494.051,124.267L454.479,176.754" style="fill:none;stroke:white;stroke-opacity:0.75;stroke-width:1.33px;"/>
        </g>
        <g transform="matrix(-1,0,0,1,693.193,3.31822)">
            <path d="M372.805,-9.776L404.853,50.757L415.846,94.829L452.361,11.868L404.853,50.757L369.513,68.113" style="fill:none;stroke:white;stroke-opacity:0.75;stroke-width:1.33px;"/>
        </g>
        <g transform="matrix(-1,0,0,1,693.193,3.31822)">
            <path d="M415.846,94.829L460.36,69.088L511.816,34.461" style="fill:none;stroke:white;stroke-opacity:0.75;stroke-width:1.33px;"/>
        </g>
        <g transform="matrix(-1,0,0,1,693.193,3.31822)">
            <path d="M511.378,99.092L460.36,69.088L432.881,130.953" style="fill:none;stroke:white;stroke-opacity:0.75;stroke-width:1.33px;"/>
        </g>
        <g transform="matrix(-1,0,0,1,693.193,3.31822)">
            <path d="M494.051,124.267L510.79,154.467L555.859,179.514L588.082,226.606L579.528,246.677L476.017,273.841L478.48,191.713L511.987,236.322L476.017,273.841" style="fill:none;stroke:white;stroke-opacity:0.75;stroke-width:1.33px;"/>
        </g>
        <g transform="matrix(-1,0,0,1,693.193,3.31822)">
            <path d="M494.051,124.267L540.25,134.839L555.859,179.514" style="fill:none;stroke:white;stroke-opacity:0.75;stroke-width:1.33px;"/>
        </g>
        <g transform="matrix(-1,0,0,1,693.193,3.31822)">
            <path d="M540.25,134.839L618.285,172.517L693.576,203.158L682.652,276.982L643.68,249.582L618.285,172.517L589.057,224.797L643.68,249.582L645.478,306.677" style="fill:none;stroke:white;stroke-opacity:0.75;stroke-width:1.33px;"/>
        </g>
        <g transform="matrix(-1,0,0,1,693.193,3.31822)">
            <path d="M581.763,108.35L618.285,172.517" style="fill:none;stroke:white;stroke-opacity:0.75;stroke-width:1.33px;"/>
        </g>
        <g transform="matrix(-1,0,0,1,693.193,3.31822)">
            <path d="M694.682,202.962L643.68,249.582" style="fill:none;stroke:white;stroke-opacity:0.75;stroke-width:1.33px;"/>
        </g>
        <g transform="matrix(-1,0,0,1,693.193,3.31822)">
            <path d="M704.011,257.192L682.652,276.982L659.971,342.829" style="fill:none;stroke:white;stroke-opacity:0.75;stroke-width:1.33px;"/>
        </g>
        <g transform="matrix(-1,0,0,1,693.193,3.31822)">
            <path d="M709.063,363.365L682.652,276.982L721.081,275.9" style="fill:none;stroke:white;stroke-opacity:0.75;stroke-width:1.33px;"/>
        </g>
        <g transform="matrix(-1,0,0,1,693.193,3.31822)">
            <path d="M755.019,458.772L696.064,445.045L650.047,483.029L667.65,522.989L730.44,505.784L673.512,463.661L755.019,458.772Z" style="fill:none;stroke:white;stroke-opacity:0.75;stroke-width:1.33px;"/>
        </g>
        <g transform="matrix(-1,0,0,1,693.193,3.31822)">
            <path d="M650.047,483.029L628.187,417.349L581.165,453.262L559.233,417.431L628.187,417.349" style="fill:none;stroke:white;stroke-opacity:0.75;stroke-width:1.33px;"/>
        </g>
        <g transform="matrix(-1,0,0,1,693.193,3.31822)">
            <path d="M562.542,372.503L512.223,387.125" style="fill:none;stroke:white;stroke-opacity:0.75;stroke-width:1.33px;"/>
        </g>
        <g transform="matrix(-1,0,0,1,693.193,3.31822)">
            <path d="M443.078,367.325L476.017,273.841L445.326,293.146L395.454,276.966L410.538,330.517" style="fill:none;stroke:white;stroke-opacity:0.75;stroke-width:1.33px;"/>
        </g>
        <g transform="matrix(-1,0,0,1,693.193,3.31822)">
            <path d="M359.43,386.537L370.151,345.934L395.454,276.966" style="fill:none;stroke:white;stroke-opacity:0.75;stroke-width:1.33px;"/>
        </g>
        <g transform="matrix(-1,0,0,1,693.193,3.31822)">
            <path d="M405.235,398.817L443.078,367.325L417.435,445.175L347.411,444.256" style="fill:none;stroke:white;stroke-opacity:0.75;stroke-width:1.33px;"/>
        </g>
        <g transform="matrix(-1,0,0,1,693.193,3.31822)">
            <path d="M458.319,422.109L417.435,445.175L431.649,484.814L455.103,528.468L433.454,585.302L411.428,542.135L381.063,504.804L431.649,484.814L494.324,471.96L458.319,422.109Z" style="fill:none;stroke:white;stroke-opacity:0.75;stroke-width:1.33px;"/>
        </g>
        <g transform="matrix(-1,0,0,1,693.193,3.31822)">
            <path d="M494.324,471.96L455.103,528.468" style="fill:none;stroke:white;stroke-opacity:0.75;stroke-width:1.33px;"/>
        </g>
        <g transform="matrix(-1,0,0,1,693.193,3.31822)">
            <path d="M300.309,481.481L303.772,515.902L381.063,504.804L377.736,471.494" style="fill:none;stroke:white;stroke-opacity:0.75;stroke-width:1.33px;"/>
        </g>
        <g transform="matrix(-1,0,0,1,693.193,3.31822)">
            <path d="M559.233,417.431L508.89,441.496" style="fill:none;stroke:white;stroke-opacity:0.75;stroke-width:1.33px;"/>
        </g>
        <g transform="matrix(-1,0,0,1,693.193,3.31822)">
            <path d="M494.324,471.96L538.44,475.65L581.165,453.262" style="fill:none;stroke:white;stroke-opacity:0.75;stroke-width:1.33px;"/>
        </g>
        <g transform="matrix(-1,0,0,1,693.193,3.31822)">
            <path d="M614.174,533.771L538.44,475.65" style="fill:none;stroke:white;stroke-opacity:0.75;stroke-width:1.33px;"/>
        </g>
        <g transform="matrix(-1,0,0,1,693.193,3.31822)">
            <path d="M494.324,471.96L562.115,527.714L592.389,576.838L512.761,586.046L479.657,539.185L562.115,527.714" style="fill:none;stroke:white;stroke-opacity:0.75;stroke-width:1.33px;"/>
        </g>
        <g transform="matrix(-1,0,0,1,693.193,3.31822)">
            <path d="M675.2,690.334L694.23,651.354L650.967,597.099" style="fill:none;stroke:white;stroke-opacity:0.75;stroke-width:1.33px;"/>
        </g>
        <g transform="matrix(-1,0,0,1,693.193,3.31822)">
            <path d="M647.856,655.772L584.38,638.006L579.582,708.771L529.713,672.118L444.673,714.647L372.669,723.323L365.373,700.86L393.373,629.494" style="fill:none;stroke:white;stroke-opacity:0.75;stroke-width:1.33px;"/>
        </g>
        <g transform="matrix(-1,0,0,1,693.193,3.31822)">
            <path d="M418.45,678.482L365.373,700.86" style="fill:none;stroke:white;stroke-opacity:0.75;stroke-width:1.33px;"/>
        </g>
        <g transform="matrix(-1,0,0,1,693.193,3.31822)">
            <path d="M584.38,638.006L592.389,576.838L529.713,672.118L479.018,628.399L463.004,665.479L445.004,644.232L444.673,714.647" style="fill:none;stroke:white;stroke-opacity:0.75;stroke-width:1.33px;"/>
        </g>
        <g transform="matrix(-1,0,0,1,693.193,3.31822)">
            <path d="M433.454,585.302L479.018,628.399" style="fill:none;stroke:white;stroke-opacity:0.75;stroke-width:1.33px;"/>
        </g>
        <g transform="matrix(-1,0,0,1,693.193,3.31822)">
            <path d="M271.588,702.523L296.403,655.059L355.635,644.131L340.193,604.443L411.428,542.135" style="fill:none;stroke:white;stroke-opacity:0.75;stroke-width:1.33px;"/>
        </g>
        <g transform="matrix(-1,0,0,1,693.193,3.31822)">
            <path d="M191.954,485.166L268.029,520.642L239.58,577.054L298.228,597.667L339.736,604.267L268.029,520.642" style="fill:none;stroke:white;stroke-opacity:0.75;stroke-width:1.33px;"/>
        </g>
        <g transform="matrix(-1,0,0,1,693.193,3.31822)">
            <path d="M130.556,626.353L231.422,592.51L239.308,686.946L127.234,702.875L180.474,666.569L235.685,643.567L296.403,655.059" style="fill:none;stroke:white;stroke-opacity:0.75;stroke-width:1.33px;"/>
        </g>
        <g transform="matrix(-1,0,0,1,693.193,3.31822)">
            <path d="M271.588,702.523L239.308,686.946L180.345,666.657L114.442,667.052L94.954,710.098" style="fill:none;stroke:white;stroke-opacity:0.75;stroke-width:1.33px;"/>
        </g>
        <g transform="matrix(-1,0,0,1,693.193,3.31822)">
            <path d="M213.196,714.21L239.308,686.946L251.759,714.335" style="fill:none;stroke:white;stroke-opacity:0.75;stroke-width:1.33px;"/>
        </g>
        <g transform="matrix(-1,0,0,1,693.193,3.31822)">
            <path d="M323.641,689.555L296.375,655.113" style="fill:none;stroke:white;stroke-opacity:0.75;stroke-width:1.33px;"/>
        </g>
        <g transform="matrix(-1,0,0,1,693.193,3.31822)">
            <path d="M564.148,66.617L581.045,-5.226" style="fill:none;stroke:white;stroke-opacity:0.75;stroke-width:1.33px;"/>
        </g>
        <g transform="matrix(-1,0,0,1,693.193,3.31822)">
            <path d="M628.117,69.711L655.269,125.957" style="fill:none;stroke:white;stroke-opacity:0.75;stroke-width:1.33px;"/>
        </g>
    </g>
</svg>
